<mxfile host="app.diagrams.net" agent="Mozilla/5.0 (Windows NT 10.0; Win64; x64) AppleWebKit/537.36 (KHTML, like Gecko) Chrome/135.0.0.0 Safari/537.36 Edg/135.0.0.0" version="26.2.12">
  <diagram name="Page-1" id="07nnad0YqxYMllLoAqNN">
    <mxGraphModel dx="1599" dy="911" grid="1" gridSize="10" guides="1" tooltips="1" connect="1" arrows="1" fold="1" page="1" pageScale="1" pageWidth="4681" pageHeight="3300" math="0" shadow="0">
      <root>
        <mxCell id="0" />
        <mxCell id="1" parent="0" />
        <mxCell id="I3rigS5n5Z_DNkKy_Ji--8" value="&lt;b&gt;&lt;font style=&quot;font-size: 30px;&quot;&gt;AWS Account&lt;/font&gt;&lt;/b&gt;" style="points=[[0,0],[0.25,0],[0.5,0],[0.75,0],[1,0],[1,0.25],[1,0.5],[1,0.75],[1,1],[0.75,1],[0.5,1],[0.25,1],[0,1],[0,0.75],[0,0.5],[0,0.25]];outlineConnect=0;gradientColor=none;html=1;whiteSpace=wrap;fontSize=12;fontStyle=0;container=1;pointerEvents=0;collapsible=0;recursiveResize=0;shape=mxgraph.aws4.group;grIcon=mxgraph.aws4.group_account;strokeColor=#CD2264;fillColor=none;verticalAlign=top;align=left;spacingLeft=30;fontColor=#CD2264;dashed=1;strokeWidth=9;" vertex="1" parent="1">
          <mxGeometry x="300" y="80" width="960" height="790" as="geometry" />
        </mxCell>
        <mxCell id="I3rigS5n5Z_DNkKy_Ji--4" value="&lt;b&gt;&lt;font style=&quot;font-size: 30px;&quot;&gt;af-south-1&lt;/font&gt;&lt;/b&gt;" style="points=[[0,0],[0.25,0],[0.5,0],[0.75,0],[1,0],[1,0.25],[1,0.5],[1,0.75],[1,1],[0.75,1],[0.5,1],[0.25,1],[0,1],[0,0.75],[0,0.5],[0,0.25]];outlineConnect=0;gradientColor=none;html=1;whiteSpace=wrap;fontSize=12;fontStyle=0;container=1;pointerEvents=0;collapsible=0;recursiveResize=0;shape=mxgraph.aws4.group;grIcon=mxgraph.aws4.group_region;strokeColor=#00A4A6;fillColor=none;verticalAlign=top;align=left;spacingLeft=30;fontColor=#147EBA;dashed=1;strokeWidth=7;" vertex="1" parent="I3rigS5n5Z_DNkKy_Ji--8">
          <mxGeometry x="60" y="80" width="810" height="650" as="geometry" />
        </mxCell>
        <mxCell id="I3rigS5n5Z_DNkKy_Ji--3" value="" style="fillColor=none;strokeColor=light-dark(#5A6C86,#61820B);dashed=1;verticalAlign=top;fontStyle=0;fontColor=#5A6C86;whiteSpace=wrap;html=1;strokeWidth=5;" vertex="1" parent="I3rigS5n5Z_DNkKy_Ji--4">
          <mxGeometry x="60" y="70" width="320" height="290" as="geometry" />
        </mxCell>
        <mxCell id="I3rigS5n5Z_DNkKy_Ji--1" value="&lt;b&gt;&lt;font style=&quot;color: light-dark(rgb(0, 0, 0), rgb(97, 130, 11));&quot;&gt;S3&lt;/font&gt;&lt;/b&gt;" style="sketch=0;points=[[0,0,0],[0.25,0,0],[0.5,0,0],[0.75,0,0],[1,0,0],[0,1,0],[0.25,1,0],[0.5,1,0],[0.75,1,0],[1,1,0],[0,0.25,0],[0,0.5,0],[0,0.75,0],[1,0.25,0],[1,0.5,0],[1,0.75,0]];outlineConnect=0;fontColor=#232F3E;fillColor=#7AA116;strokeColor=#ffffff;dashed=0;verticalLabelPosition=middle;verticalAlign=middle;align=left;html=1;fontSize=30;fontStyle=0;aspect=fixed;shape=mxgraph.aws4.resourceIcon;resIcon=mxgraph.aws4.s3;labelPosition=right;spacingLeft=15;" vertex="1" parent="I3rigS5n5Z_DNkKy_Ji--4">
          <mxGeometry x="60" y="70" width="78" height="78" as="geometry" />
        </mxCell>
        <mxCell id="I3rigS5n5Z_DNkKy_Ji--9" value="Bucket: &lt;b&gt;hansraptor-poc-dpworld-dashboard&lt;/b&gt;&lt;div&gt;Prefixes used for data cataloguing:&lt;/div&gt;&lt;div&gt;-&amp;nbsp;INJURIES/&lt;/div&gt;&lt;div&gt;-&amp;nbsp;SSALOG_INC/&lt;/div&gt;&lt;div&gt;- More to come...&lt;/div&gt;" style="sketch=0;outlineConnect=0;fontColor=#232F3E;gradientColor=none;fillColor=#7AA116;strokeColor=none;dashed=0;verticalLabelPosition=bottom;verticalAlign=top;align=left;html=1;fontSize=12;fontStyle=0;aspect=fixed;pointerEvents=1;shape=mxgraph.aws4.bucket_with_objects;" vertex="1" parent="I3rigS5n5Z_DNkKy_Ji--4">
          <mxGeometry x="90" y="170" width="75" height="78" as="geometry" />
        </mxCell>
      </root>
    </mxGraphModel>
  </diagram>
</mxfile>
